<svg xmlns="http://www.w3.org/2000/svg" xmlns:xlink="http://www.w3.org/1999/xlink" version="1.1" x="0px" y="0px" viewBox="0 0 100 125" enable-background="new 0 0 100 100" xml:space="preserve"><path d="M50,3C24.084,3,3,24.084,3,50s21.084,47,47,47s47-21.084,47-47S75.916,3,50,3z M50,93C26.29,93,7,73.71,7,50S26.29,7,50,7  s43,19.29,43,43S73.71,93,50,93z M41.377,52.201h0.677c4.833,0,8.765-3.933,8.765-8.766v-5.497c0-4.833-3.932-8.766-8.765-8.766  h-0.677c-4.834,0-8.767,3.933-8.767,8.766v5.497C32.61,48.269,36.543,52.201,41.377,52.201z M36.61,37.938  c0-2.628,2.139-4.766,4.767-4.766h0.677c2.627,0,4.765,2.138,4.765,4.766v5.497c0,2.628-2.138,4.766-4.765,4.766h-0.677  c-2.628,0-4.767-2.138-4.767-4.766V37.938z M51.19,53.584H32.239c-4.411,0-8,3.589-8,8v5.066c0,4.411,3.589,8,8,8H51.19  c4.411,0,8-3.589,8-8v-5.066C59.19,57.173,55.602,53.584,51.19,53.584z M55.19,66.65c0,2.206-1.794,4-4,4H32.239  c-2.206,0-4-1.794-4-4v-5.066c0-2.206,1.794-4,4-4H51.19c2.206,0,4,1.794,4,4V66.65z M73.646,33.75h-6.4v-6.4c0-1.104-0.896-2-2-2  s-2,0.896-2,2v6.4h-6.399c-1.104,0-2,0.896-2,2s0.896,2,2,2h6.399v6.4c0,1.104,0.896,2,2,2s2-0.896,2-2v-6.4h6.4  c1.104,0,2-0.896,2-2S74.75,33.75,73.646,33.75z"/><text x="0" y="115" fill="#000000" font-size="5px" font-weight="bold" font-family="'Helvetica Neue', Helvetica, Arial-Unicode, Arial, Sans-serif">Created by Chunk Icons</text><text x="0" y="120" fill="#000000" font-size="5px" font-weight="bold" font-family="'Helvetica Neue', Helvetica, Arial-Unicode, Arial, Sans-serif">from the Noun Project</text></svg>